<svg id="레이어_1" data-name="레이어 1" xmlns="http://www.w3.org/2000/svg" viewBox="0 0 300 300"><path d="M101.61,145.42V146q-.69,0-.69.45v10H109a1,1,0,0,0,.6-.17.52.52,0,0,0,.24-.46h.54v3.14h-.54a.23.23,0,0,0-.24-.26,3.39,3.39,0,0,0-.6,0H97.26v-.54q.78,0,.78-.45V146.41q0-.45-.78-.45v-.54Z"/><path d="M113.46,146.47a1.21,1.21,0,0,0-.51-.39,1.54,1.54,0,0,0-.57-.12v-.54h5V146a.68.68,0,0,0-.33.11.31.31,0,0,0-.18.28.52.52,0,0,0,.12.33l.27.36,3,4,2.67-3.72c.18-.26.32-.45.4-.58a.62.62,0,0,0,.14-.38q0-.24-.15-.3a.8.8,0,0,0-.3-.06v-.54h4.59V146a1.26,1.26,0,0,0-.8.41,7.17,7.17,0,0,0-.76.82l-4.59,5.94v4.5q0,.45.57.45v.54h-4v-.54q.54,0,.54-.45V153Z"/><path d="M130.77,158.08q.54,0,.54-.45V146.41q0-.45-.54-.45v-.54h4.41V146q-.21,0-.21.15t.66.81l7.2,7.62v-8.13q0-.45-.6-.45v-.54h3.66V146q-.54,0-.54.45v11.22q0,.45.54.45v.54H142v-.54c.14,0,.21,0,.21-.15a1,1,0,0,0-.28-.42l-.65-.68-7.44-7.93v8.73q0,.45.63.45v.54h-3.69Z"/><path d="M150.36,158.08q.69,0,.69-.45V146.41q0-.45-.69-.45v-.54h8.34a7.31,7.31,0,0,1,3,.57,5.71,5.71,0,0,1,3.23,3.59,8,8,0,0,1,.37,2.44,8.35,8.35,0,0,1-.36,2.45,5.8,5.8,0,0,1-1.14,2.1,5.66,5.66,0,0,1-2,1.48,7,7,0,0,1-3,.57h-8.46Zm7.47-1.67a11.14,11.14,0,0,0,1.77-.14,3.32,3.32,0,0,0,1.47-.6,3.17,3.17,0,0,0,1-1.35,6.24,6.24,0,0,0,.37-2.39,6,6,0,0,0-.37-2.35,3,3,0,0,0-1-1.29,3.25,3.25,0,0,0-1.47-.54,14.25,14.25,0,0,0-1.77-.11h-3.9v8.77Z"/><path d="M175.83,145.24a11.18,11.18,0,0,1,3.11.42,7.42,7.42,0,0,1,2.53,1.26,6,6,0,0,1,1.71,2.12,7.39,7.39,0,0,1,0,6,5.91,5.91,0,0,1-1.71,2.11,6.7,6.7,0,0,1-2.53,1.22,13.21,13.21,0,0,1-6.21,0,6.67,6.67,0,0,1-2.54-1.22,5.91,5.91,0,0,1-1.71-2.11,7.39,7.39,0,0,1,0-6,6,6,0,0,1,1.71-2.12,7.38,7.38,0,0,1,2.54-1.26A11.11,11.11,0,0,1,175.83,145.24Zm0,2.22a5.7,5.7,0,0,0-1.87.32,5.33,5.33,0,0,0-1.64.9,4.42,4.42,0,0,0-1.15,1.42,4.43,4.43,0,0,0,0,3.85,4.53,4.53,0,0,0,1.15,1.42,5.33,5.33,0,0,0,1.64.9,5.69,5.69,0,0,0,1.87.31,5.75,5.75,0,0,0,1.88-.31,5.28,5.28,0,0,0,1.63-.9A4.56,4.56,0,0,0,180.5,154a4.52,4.52,0,0,0,0-3.85,4.45,4.45,0,0,0-1.16-1.42,5.28,5.28,0,0,0-1.63-.9A5.76,5.76,0,0,0,175.83,147.46Z"/><path d="M187.44,158.08q.54,0,.54-.45V146.41q0-.45-.54-.45v-.54h4.41V146q-.21,0-.21.15t.66.81l7.2,7.62v-8.13q0-.45-.6-.45v-.54h3.66V146q-.54,0-.54.45v11.22q0,.45.54.45v.54h-3.9v-.54c.14,0,.21,0,.21-.15a.91.91,0,0,0-.28-.42l-.65-.68-7.44-7.93v8.73q0,.45.63.45v.54h-3.69Z"/></svg>