<svg id="레이어_1" data-name="레이어 1" xmlns="http://www.w3.org/2000/svg" viewBox="0 0 133.64209 40.97754"><path d="M91.75732,167.21094H100.959c2.40821,0,2.62305-2.2793,3.52588-7.86914h.688a56.4331,56.4331,0,0,0-.645,8.51367H83.71631v-.64453h3.82715V140.07812H83.71631v-.6455H95.584v.6455H91.75732Z" transform="translate(-83.71631 -136.98242)"/><path d="M114.67578,167.124l-.64453,4.34375c-.47266,3.18164-1.50488,6.49219-5.375,6.49219-2.19238,0-4.90186-.85937-4.90186-3.22461,0-1.54785,1.11817-2.79492,4.04151-2.79492v.34375c-.85938.12891-1.332.98926-1.332,2.36523,0,1.46192.47265,2.666,2.32129,2.666a3.80547,3.80547,0,0,0,3.18261-1.63379,9.98657,9.98657,0,0,0,1.375-3.956l.47364-3.4834-8.64307-19.0918h-2.27881v-.64453h9.417v.64453h-2.96679L115.4502,163.169l4.17089-11.43848c.64551-1.71973.12891-2.58008-1.76269-2.58008h-.86035v-.64453H123.835v.64453h-.64453a2.92293,2.92293,0,0,0-2.666,1.97852Z" transform="translate(-83.71631 -136.98242)"/><path d="M124.69531,167.21094h3.00977V149.15039h-3.00977v-.64453h6.708v4.60059h.08594a6.97756,6.97756,0,0,1,6.92285-4.90137c4.25684,0,6.19141,1.80566,6.19141,5.89062v13.11524h3.00976v.64453h-9.50293v-.64453h2.709V153.32129c0-3.22461-.73047-4.34277-3.05274-4.34277a5.68681,5.68681,0,0,0-4.72949,2.49414,9.09743,9.09743,0,0,0-1.54785,4.8164v10.92188h2.709v.64453h-9.50293Z" transform="translate(-83.71631 -136.98242)"/><path d="M158.4502,148.20508A5.69853,5.69853,0,0,1,164.04,151.6875h.08594V137.627h-3.00977v-.64453h6.793v30.22852h3.01074v.64453h-6.708v-4.12793H164.126a6.18335,6.18335,0,0,1-6.32129,4.42871c-5.28907,0-7.91211-3.69727-7.91211-9.6748C149.89258,151.98828,153.29,148.20508,158.4502,148.20508Zm.043,19.2207c3.48243,0,5.63282-3.44043,5.63282-7.09473v-4.98828c0-3.13867-1.59082-6.40722-5.28907-6.40722-3.48339,0-4.90234,2.92383-4.90234,9.63183C153.93457,165.10352,155.39648,167.42578,158.49316,167.42578Z" transform="translate(-83.71631 -136.98242)"/><path d="M182.5293,148.20508c6.40722,0,9.15918,3.74023,9.15918,9.84668,0,6.45019-3.4834,10.10449-9.15918,10.10449-6.19239,0-9.20215-3.87012-9.20215-9.84668C173.32715,152.11816,176.165,148.20508,182.5293,148.20508Zm5.11718,9.84668c0-6.53614-1.2041-9.28809-5.11718-9.28809-3.87012,0-5.16016,2.83789-5.16016,9.5459,0,6.40723,1.24707,9.28809,5.16016,9.28809S187.64648,164.63086,187.64648,158.05176Z" transform="translate(-83.71631 -136.98242)"/><path d="M194.44043,167.21094h3.00977V149.15039h-3.00977v-.64453h6.708v4.60059h.08594a6.97755,6.97755,0,0,1,6.92285-4.90137c4.25683,0,6.1914,1.80566,6.1914,5.89062v13.11524h3.00977v.64453h-9.50293v-.64453h2.709V153.32129c0-3.22461-.73047-4.34277-3.05273-4.34277a5.68679,5.68679,0,0,0-4.72949,2.49414,9.09735,9.09735,0,0,0-1.54785,4.8164v10.92188h2.709v.64453h-9.50293Z" transform="translate(-83.71631 -136.98242)"/></svg>