<svg id="레이어_1" data-name="레이어 1" xmlns="http://www.w3.org/2000/svg" viewBox="0 0 300 300"><defs><style>.cls-1{fill:none;}</style></defs><rect class="cls-1" x="30" y="30" width="240" height="240"/><path d="M47.294,207.39746a1.55748,1.55748,0,0,0,.72265-.33984,1.62954,1.62954,0,0,0,.29688-1.18946V174.75781a2.86039,2.86039,0,0,0-.21192-1.44531,1.0225,1.0225,0,0,0-.80761-.25488v-1.53028H59.1084v1.53028q-.84962,0-.84961.76465a2.01757,2.01757,0,0,0,.29785.89257q.2959.55371.8916,1.57325l10.37012,19.125,10.45508-19.04q.59472-1.021.93554-1.65821a2.39244,2.39244,0,0,0,.33985-.89257c0-.50977-.22754-.76465-.67969-.76465v-1.53028H92.85352v1.53028a1.64773,1.64773,0,0,0-.80762.21289.93167.93167,0,0,0-.38184.89258v31.96a1.16206,1.16206,0,0,0,.38184.97754,1.28764,1.28764,0,0,0,.80762.29687v1.53027H82.99414v-1.53027q1.78417,0,1.5293-1.27441V182.2373h-.16992l-14.4502,26.69043h-.67969L55.53906,182.2373h-.085v23.88575q0,1.27441,1.44434,1.27441v1.53027H47.294Z"/><path d="M140.53809,179.43262q0-1.6128-2.63575-1.61524H117.16309v8.5h13.08984a7.74361,7.74361,0,0,0,2.125-.21191q.67968-.21094.67969-1.14746h1.53027v9.00976H132.8877a.81306.81306,0,0,0-.67969-1.14746,12.639,12.639,0,0,0-2.63477-.21289H117.16309V202.6377h21.75976a2.92876,2.92876,0,0,0,1.7002-.46778,1.4311,1.4311,0,0,0,.67968-1.23242H142.833v8.9248h-1.53028a.73749.73749,0,0,0-.67968-.8496,14.11516,14.11516,0,0,0-1.7002-.085H107.72754v-1.53027a1.47184,1.47184,0,0,0,.85058-.29687,1.11036,1.11036,0,0,0,.42481-.97754v-31.79a1.11265,1.11265,0,0,0-.42481-.97754,1.48028,1.48028,0,0,0-.85058-.29785v-1.53028h30.1748q2.63379,0,2.63575-1.52929h1.52929v9.43457Z"/><path d="M154.90234,207.39746q1.53077,0,1.53028-1.27441v-31.79q0-1.27589-1.53028-1.27539v-1.53028h12.49512v1.53028c-.39746.05761-.59473.19922-.59473.4248q0,.42627,1.87012,2.29492l20.39942,21.59082V174.333q0-1.27589-1.69922-1.27539v-1.53028h10.36914v1.53028q-1.52929,0-1.5293,1.27539v31.79q0,1.27441,1.5293,1.27441v1.53027H186.69238v-1.53027c.39551,0,.59473-.14062.59473-.4248q0-.33838-.80664-1.18946-.81006-.8496-1.82813-1.95508L163.57227,181.3877v24.73535q0,1.27441,1.78515,1.27441v1.53027H154.90234Z"/><path d="M223.15723,173.06152q-1.87061,0-1.87012,1.2793V193.8584a8.09772,8.09772,0,0,0,2.97461,6.5625q2.9751,2.47266,9.09473,2.47168,6.12011,0,9.0957-2.47168a8.10345,8.10345,0,0,0,2.97461-6.5625V174.34082q0-1.27881-2.125-1.2793v-1.53418h11.81543v1.53028q-1.87061,0-1.87012,1.27539v21.50488a11.33857,11.33857,0,0,1-1.19043,5.05762,12.2619,12.2619,0,0,1-3.6123,4.292,18.05181,18.05181,0,0,1-6.20508,2.93262,37.65864,37.65864,0,0,1-17.76465,0,18.0345,18.0345,0,0,1-6.20508-2.93262,12.25162,12.25162,0,0,1-3.6123-4.292,11.31244,11.31244,0,0,1-1.19043-5.05762V174.333a1.0443,1.0443,0,0,0-.50977-.97754,4.336,4.336,0,0,0-1.95508-.29785v-1.53028h12.15528Z"/><circle cx="75.5" cy="105" r="17.5"/><circle cx="222.5" cy="105" r="17.5"/><circle cx="149" cy="105" r="17.5"/></svg>